# Blender 4.3.2
# www.blender.org
mtllib asteroid.mtl
o Icosphere
v 0.130138 -0.754457 0.258771
v 0.687544 -0.246289 0.558114
v -0.321327 -0.342154 0.809668
v -0.795789 -0.328752 -0.086038
v -0.333234 -0.340254 -0.682239
v 0.572145 -0.447215 -0.438940
v 0.398860 0.447215 0.929091
v -0.601125 0.447215 0.762643
v -0.723600 0.447215 -0.525720
v 0.276385 0.447215 -0.759930
v 0.742970 0.447215 0.086780
v 0.151765 0.914482 0.152664
vn 0.2384 -0.6736 0.6996
vn 0.6486 -0.7571 0.0775
vn -0.4780 -0.8448 0.2405
vn -0.3307 -0.9130 -0.2390
vn 0.0002 -0.9152 -0.4029
vn 0.9867 -0.1376 -0.0865
vn 0.2577 -0.3702 0.8925
vn -0.8513 -0.2751 0.4468
vn -0.7649 -0.2622 -0.5884
vn 0.2211 -0.2638 -0.9389
vn 0.9106 0.1801 0.3720
vn -0.1642 0.0006 0.9864
vn -0.9850 0.1447 0.0936
vn -0.2273 0.0802 -0.9705
vn 0.8700 0.1156 -0.4794
vn 0.6172 0.7453 0.2521
vn -0.0889 0.8407 0.5342
vn -0.4987 0.8655 0.0474
vn -0.1089 0.8787 -0.4648
vn 0.5673 0.7619 -0.3126
vt 0.181819 0.000000
vt 0.272728 0.157461
vt 0.090910 0.157461
vt 0.363637 0.000000
vt 0.454546 0.157461
vt 0.909091 0.000000
vt 1.000000 0.157461
vt 0.818182 0.157461
vt 0.727273 0.000000
vt 0.636364 0.157461
vt 0.545455 0.000000
vt 0.363637 0.314921
vt 0.181819 0.314921
vt 0.909091 0.314921
vt 0.727273 0.314921
vt 0.545455 0.314921
vt 0.000000 0.314921
vt 0.272728 0.472382
vt 0.090910 0.472382
vt 0.818182 0.472382
vt 0.636364 0.472382
vt 0.454546 0.472382
s 0
usemtl Material.001
f 1/1/1 2/2/1 3/3/1
f 2/2/2 1/4/2 6/5/2
f 1/6/3 3/7/3 4/8/3
f 1/9/4 4/8/4 5/10/4
f 1/11/5 5/10/5 6/5/5
f 2/2/6 6/5/6 11/12/6
f 3/3/7 2/2/7 7/13/7
f 4/8/8 3/7/8 8/14/8
f 5/10/9 4/8/9 9/15/9
f 6/5/10 5/10/10 10/16/10
f 2/2/11 11/12/11 7/13/11
f 3/3/12 7/13/12 8/17/12
f 4/8/13 8/14/13 9/15/13
f 5/10/14 9/15/14 10/16/14
f 6/5/15 10/16/15 11/12/15
f 7/13/16 11/12/16 12/18/16
f 8/17/17 7/13/17 12/19/17
f 9/15/18 8/14/18 12/20/18
f 10/16/19 9/15/19 12/21/19
f 11/12/20 10/16/20 12/22/20
